<?xml version="1.0" standalone="no"?>
<!DOCTYPE svg PUBLIC "-//W3C//DTD SVG 20010904//EN"
 "http://www.w3.org/TR/2001/REC-SVG-20010904/DTD/svg10.dtd">
<svg version="1.0" xmlns="http://www.w3.org/2000/svg"
 width="629.000000pt" height="629.000000pt" viewBox="0 0 629.000000 629.000000"
 preserveAspectRatio="xMidYMid meet">
<metadata>
Created by potrace 1.11, written by Peter Selinger 2001-2013
</metadata>
<g transform="translate(0.000000,629.000000) scale(0.100000,-0.100000)"
fill="#000000" stroke="none">
<path d="M2748 5814 c-3 -2 -29 -6 -59 -9 -49 -5 -121 -16 -204 -30 -190 -34
-451 -120 -652 -216 -748 -359 -1294 -1053 -1463 -1858 -47 -227 -55 -305 -55
-561 0 -113 4 -234 8 -270 19 -161 17 -149 52 -320 13 -62 51 -194 81 -280 40
-116 42 -110 -46 -136 -105 -30 -248 -120 -313 -196 -21 -23 -50 -68 -65 -98
-54 -111 -35 -258 45 -333 70 -66 196 -80 298 -33 l54 24 -5 -21 c-73 -333
-90 -619 -46 -763 66 -216 216 -288 500 -237 42 7 95 16 117 19 22 4 41 7 42
8 1 0 -25 30 -58 66 -74 80 -84 98 -97 180 -11 62 -9 399 2 485 2 22 7 65 11
95 3 30 7 64 9 75 3 11 5 24 5 30 1 5 34 -26 73 -70 40 -44 102 -108 137 -143
l65 -63 1 -72 c3 -132 67 -202 184 -202 118 0 232 32 288 79 68 59 89 113 92
240 l1 38 39 -35 c22 -20 56 -40 75 -45 37 -11 48 -10 186 14 89 15 97 16 225
39 44 8 94 17 111 20 93 15 178 65 231 135 l37 49 24 -24 c13 -14 49 -36 80
-51 133 -63 333 -13 460 116 l47 48 27 -19 c56 -41 133 -59 236 -55 53 2 106
6 117 9 135 37 228 89 322 181 l72 71 37 -32 c98 -86 243 -110 405 -68 129 32
218 84 316 181 l62 62 28 -30 c15 -16 57 -43 92 -61 55 -27 75 -31 140 -31 42
0 91 4 110 8 59 12 138 57 191 108 l51 49 27 -18 c45 -30 67 -40 106 -47 31
-6 36 -10 32 -29 -32 -152 -33 -167 -20 -184 16 -23 31 -9 38 36 18 118 30
171 40 168 6 -2 31 2 54 9 l44 13 -7 -27 c-32 -126 -34 -182 -5 -182 13 0 19
13 25 56 3 22 10 59 15 84 6 25 11 55 13 67 2 12 15 32 30 43 31 25 63 81 88
155 l17 50 0 -55 c0 -83 0 -86 13 -73 6 6 10 33 8 62 -5 59 2 55 25 -16 21
-64 37 -61 60 12 9 30 19 55 20 55 2 0 3 -21 1 -47 -2 -52 3 -76 15 -68 4 2 6
35 5 72 -3 87 -3 83 -18 83 -8 0 -21 -27 -32 -62 l-18 -62 -18 39 c-10 22 -18
48 -18 58 -1 11 -10 21 -21 24 -13 4 -19 11 -16 22 5 18 22 107 31 159 3 19 7
37 8 40 7 22 -19 11 -97 -41 l-88 -57 7 202 c3 112 8 278 11 369 l4 166 -30
46 c-28 44 -69 74 -112 82 -12 3 -22 6 -23 7 -2 2 -5 67 -9 146 -4 110 -2 151
8 176 13 32 39 134 51 206 3 19 10 53 15 75 15 65 13 66 -50 25 -32 -22 -63
-40 -69 -40 -17 0 -25 82 -21 230 7 306 7 312 -17 350 -31 50 -88 80 -152 80
-28 0 -51 4 -51 9 0 5 -24 52 -53 103 -358 632 -946 1089 -1642 1278 -44 12
-89 23 -100 25 -11 1 -38 7 -60 13 -40 11 -64 15 -160 28 -27 3 -61 8 -75 11
-33 6 -547 13 -552 7z m-2246 -4049 c-4 -26 -22 -35 -22 -12 0 10 18 37 26 37
1 0 -1 -11 -4 -25z"/>
<path d="M6155 2025 c0 -41 5 -75 10 -75 5 0 9 12 10 27 0 44 37 43 65 -1 28
-46 58 -51 35 -6 -9 17 -21 30 -27 30 -7 0 -2 9 10 20 46 43 22 80 -53 80
l-51 0 1 -75z m98 43 c8 -24 -5 -38 -37 -38 -39 0 -45 5 -39 31 4 14 14 19 38
19 18 0 35 -6 38 -12z"/>
<path d="M5492 1773 c-9 -25 -20 -62 -28 -103 -11 -48 -10 -99 1 -104 21 -8
33 8 39 57 4 26 11 71 16 99 6 28 10 57 10 64 0 25 -27 15 -38 -13z"/>
<path d="M5328 1644 c-41 -13 -49 -20 -72 -66 -29 -59 -33 -109 -10 -132 22
-23 44 -20 76 11 27 26 28 26 28 5 0 -15 6 -22 20 -22 17 0 20 7 21 43 0 23 2
67 4 99 5 71 -5 80 -67 62z m32 -52 c0 -38 -57 -122 -82 -122 -11 0 -10 43 2
74 20 52 80 89 80 48z"/>
<path d="M5092 1600 c-25 -24 -33 -25 -26 -5 4 10 0 15 -14 15 -16 0 -22 -10
-31 -47 -20 -86 -23 -169 -6 -183 21 -17 27 2 34 111 1 18 64 89 80 89 19 0
21 -18 9 -98 -12 -83 -8 -107 16 -81 18 19 39 151 31 189 -6 26 -11 30 -39 30
-18 0 -41 -9 -54 -20z"/>
<path d="M4540 1585 c-15 -18 -6 -45 14 -45 9 0 20 9 26 20 14 26 -21 48 -40
25z"/>
<path d="M5760 1575 c-17 -21 -8 -50 17 -53 30 -4 49 31 27 52 -19 20 -28 20
-44 1z"/>
<path d="M4908 1570 c-16 -5 -28 -6 -28 -2 0 15 -64 -56 -76 -85 -17 -40 -18
-105 -2 -121 20 -20 50 -14 80 15 l28 27 0 -27 c0 -29 11 -35 28 -14 14 16 19
194 7 206 -6 4 -22 5 -37 1z m7 -61 c2 -35 -51 -119 -74 -119 -17 0 -13 62 5
90 32 48 68 63 69 29z"/>
<path d="M5606 1544 c-19 -19 -20 -26 -4 -42 19 -19 44 -14 56 12 18 40 -20
62 -52 30z"/>
<path d="M4690 1543 c-35 -8 -80 -104 -80 -170 0 -40 36 -69 72 -58 29 9 78
54 78 72 0 20 -18 16 -48 -12 -15 -14 -35 -25 -46 -25 -16 0 -18 6 -14 45 6
53 31 95 57 95 25 0 42 22 31 40 -9 14 -25 19 -50 13z"/>
<path d="M5450 1509 c-10 -17 -9 -24 4 -37 21 -22 51 -4 51 29 0 33 -39 39
-55 8z"/>
<path d="M4423 1459 l-27 -41 -13 26 c-9 17 -22 26 -38 26 -28 0 -33 -21 -9
-40 37 -31 35 -46 -8 -101 -23 -29 -43 -48 -46 -41 -6 18 -25 15 -44 -8 -19
-22 -60 -35 -83 -26 -26 10 -16 34 18 46 43 15 72 40 80 71 9 36 -20 62 -59
53 -30 -7 -84 -60 -84 -82 0 -7 -7 -20 -15 -29 -10 -9 -12 -19 -7 -27 5 -6 12
-23 16 -37 10 -44 85 -48 139 -8 21 15 32 18 41 10 10 -9 24 1 60 41 l47 53
19 -25 c11 -14 22 -33 26 -42 7 -23 21 -23 33 0 7 13 2 27 -20 56 -34 46 -35
56 -10 82 26 29 43 63 36 74 -11 18 -25 10 -52 -31z m-213 -83 c0 -15 -49 -51
-58 -42 -6 7 37 56 50 56 4 0 8 -6 8 -14z"/>
<path d="M4529 1483 c0 -5 -2 -21 -4 -38 -13 -101 -13 -154 0 -165 17 -14 28
2 31 50 12 170 13 160 -7 160 -11 0 -19 -3 -20 -7z"/>
<path d="M3946 1386 c-33 -20 -42 -22 -53 -10 -15 15 -63 3 -84 -22 -10 -12
-14 -12 -26 5 -17 25 -43 17 -41 -12 0 -12 -2 -65 -7 -118 -6 -83 -5 -97 9
-102 22 -9 30 9 33 77 3 48 9 66 34 97 54 69 67 51 50 -68 -8 -58 -1 -79 23
-70 11 4 16 20 17 47 1 22 3 45 4 50 1 6 3 16 4 23 0 8 16 31 35 53 50 57 68
33 51 -66 -12 -71 -11 -83 7 -85 22 -4 39 53 40 138 1 47 -2 63 -17 73 -25 19
-34 18 -79 -10z"/>
<path d="M3460 1299 c-77 -17 -142 -156 -94 -203 22 -23 44 -20 76 11 26 25
28 26 28 6 0 -22 25 -39 35 -23 3 6 8 54 10 109 5 109 4 113 -55 100z m20 -59
c0 -24 -25 -76 -48 -102 -41 -48 -58 10 -21 72 33 53 69 69 69 30z"/>
<path d="M3216 1249 c-21 -17 -26 -18 -26 -5 0 18 -25 22 -35 6 -3 -5 -12 -43
-19 -84 -11 -64 -13 -94 -7 -139 1 -4 9 -4 19 2 10 5 18 22 18 40 1 17 2 42 3
56 1 28 66 105 88 105 13 0 14 -10 8 -62 -13 -100 -12 -123 5 -123 22 0 49
149 36 200 -8 32 -52 34 -90 4z"/>
<path d="M2729 1243 c0 -4 -1 -28 -2 -52 -2 -32 -7 -47 -22 -55 -11 -6 -22
-12 -24 -13 -2 -2 2 -9 9 -18 7 -8 16 -13 20 -10 4 2 7 -6 7 -18 1 -63 5 -79
23 -97 27 -27 52 -25 88 5 33 27 60 105 37 105 -7 0 -18 -12 -24 -27 -16 -38
-56 -67 -69 -50 -12 14 -15 31 -13 69 1 22 10 31 56 52 30 14 55 29 55 35 0
19 -20 21 -56 6 -20 -8 -38 -15 -40 -15 -1 0 -4 19 -6 42 -2 31 -8 44 -20 46
-10 2 -18 0 -19 -5z"/>
<path d="M2995 1210 c-60 -23 -111 -160 -73 -198 18 -18 56 -14 75 8 22 25 33
25 33 1 0 -17 21 -23 34 -10 2 2 6 49 8 104 l3 100 -30 1 c-17 1 -40 -2 -50
-6z m38 -64 c-3 -34 -38 -93 -64 -106 -17 -10 -19 -7 -19 22 0 32 31 95 54
110 19 13 31 2 29 -26z"/>
<path d="M2265 1198 c-2 -7 -6 -58 -10 -113 -3 -55 -8 -126 -11 -157 -3 -32 0
-59 5 -63 20 -12 93 19 126 54 31 31 50 75 48 109 0 6 -1 20 -2 31 -1 11 -10
20 -26 23 -25 5 -85 -18 -85 -33 0 -5 -4 -9 -9 -9 -4 0 -7 12 -5 28 7 52 7
120 0 131 -9 15 -26 14 -31 -1z m115 -197 c-11 -41 -30 -67 -62 -85 -30 -18
-30 -18 -30 14 0 45 4 54 39 86 42 39 67 32 53 -15z"/>
<path d="M3577 1162 c-15 -17 -15 -20 0 -41 13 -19 14 -28 5 -42 -16 -25 -15
-29 7 -29 20 0 28 14 41 66 13 55 -20 83 -53 46z"/>
<path d="M2554 1132 c-35 -18 -49 -35 -74 -87 -41 -84 -13 -153 57 -142 44 8
71 31 94 82 46 100 0 187 -77 147z m56 -79 c0 -46 -45 -113 -75 -113 -7 0 -18
7 -26 16 -20 25 8 93 50 121 37 25 51 19 51 -24z"/>
<path d="M1759 1093 c-1 -5 -2 -26 -4 -48 -1 -22 -5 -67 -9 -100 -4 -33 -9
-78 -12 -100 -5 -47 2 -61 36 -70 34 -8 190 87 190 116 0 26 -19 24 -61 -7
-45 -34 -109 -67 -116 -60 -4 3 0 59 7 125 7 66 10 126 7 135 -6 16 -36 23
-38 9z"/>
<path d="M2072 1040 c-48 -11 -86 -65 -97 -138 -5 -33 -2 -45 15 -62 26 -26
32 -25 70 6 31 27 31 27 37 5 6 -23 32 -29 34 -8 4 27 11 178 10 195 -1 13
-19 14 -69 2z m28 -57 c0 -48 -63 -133 -83 -114 -14 14 12 89 39 116 32 32 44
32 44 -2z"/>
</g>
</svg>
